<svg version="1.2" xmlns="http://www.w3.org/2000/svg" viewBox="0 0 842 567" width="842" height="567"><style>.a{fill:#fff}.b{fill:#5b4175}</style><path class="a" d="m841.9 566.9h-841.9v-566.9h841.9z"/><path fill-rule="evenodd" class="b" d="m474.6 312.3c5.5 2 10.8 5.5 15.6 10.9 13.7 15.6 10.9 30.5 15.4 36.3 6.3 8.2 12.4 0.2 12.4 0.2 0 0 5.3 6.8-4.2 13-13 8.4-21.9 0.8-31.4-9.6-4.2-4.5-6.9-8.4-14.8-10.9 2.2-12.8 0.3-33.1-31.4-37.9 0 0 17.3 6.6 21.9 22.3 1.6 5.7 2.8 15.7-4.5 27.2-8.7 14-9.3 18.4-4.1 21.3 2 1.2 5-0.1 7-2.3 2-2.3 3.6-2.7 4.9-1.1 1.6 2.1-1.7 15.4-16 15.3-26.4 0-20-25.8-25.2-36.7q0 0 0 0c-4-20.8-25.9-20.8-25.9-20.8 8.2 5.4 12.2 12.8 14.1 19.4-3.3 0.6-7.4 1.1-12.2-0.1-27.9-7.1-25.9 5.3-23.7 8.9 6.4 10.4 22.7-1.3 16.7 8.9-5.8 9.7-33.3 10.4-42-9.1-1.4-3.1-2.3-6.7-2.6-10.8-1.5-22 11.6-33.7 27.4-37.9-12 3.2-44.6 14.8-36.1 48.3-32.2-4.6-34.7-35.5-31.9-47.1 2-8 6.4-23.9 6.6-28.6 0.3-9.3-8.5-17.9 4.8-14.7 16.1 3.9 5.6 20.7 17.1 34.8 3.4 4 9.3 5.1 15 2.8 0 0 12.9-4.5 20.3-14.7 7.4-10.3 8.5-21.3 8.5-21.3 0 0-6.8 10.4-15.6 16.9 1.5-8.4 0.4-19.5-5-33.6-19.1-29.2-27.2-67.9-1.5-97.9 23.7-27.7 53-30.1 66-30.1 13 0 42.3 2.4 66 30.1 22.4 26.2 19.1 59 5.2 86.3-5.5 9.8-10.6 14.9-15.2 24.3-7.1 14.6-5.3 23.2-5.3 23.2 0 0 3.7-8 9.8-14.2 0.6 23.4 21.9 27.7 28.2 16.9 8.9-14.9-4.9-23.1 11.3-31.5 16.1-8.4 6.9 3.5 7.1 9.1 0.3 8.3 5.9 16.1 8.9 23.4 4.9 12.1 5.2 36.5-22.1 44.1q-1.2 0.3-2.4 0.6c-7-26.6-27.2-32.4-37.1-33.6zm-63.6-86.2c0-3.5-2.6-6.3-5.7-6.3-3.1 0-5.6 2.8-5.6 6.3 0 3.5 2.5 6.3 5.6 6.3 3.1 0 5.7-2.8 5.7-6.3zm30.4 0.3c0-3.4-2.5-6.1-5.5-6.1-3 0-5.4 2.7-5.4 6.1 0 3.3 2.4 6 5.4 6 3 0 5.5-2.7 5.5-6z"/></svg>