<svg version="1.2" xmlns="http://www.w3.org/2000/svg" viewBox="0 0 500 500" width="500" height="500"><style>.a{fill:#5b4175}</style><path fill-rule="evenodd" class="a" d="m351.2 338c10.4 3.8 20.4 10.4 29.5 20.6 25.9 29.4 20.6 57.5 29.1 68.5 11.9 15.4 23.4 0.3 23.4 0.3 0 0 10 12.9-7.9 24.6-24.6 15.8-41.4 1.5-59.3-18.1-7.9-8.5-13-15.9-28-20.6 4.2-24.2 0.6-62.5-59.2-71.5 0 0 32.6 12.4 41.3 42.1 3 10.7 5.3 29.6-8.5 51.3-16.4 26.4-17.5 34.7-7.7 40.2 3.8 2.3 9.4-0.2 13.2-4.3 3.8-4.4 6.8-5.1 9.3-2.1 3 3.9-3.2 29.1-30.2 28.9-49.9 0-37.8-48.7-47.6-69.3-7.6-39.2-48.9-39.2-48.9-39.2 15.5 10.2 23 24.1 26.6 36.6-6.2 1.1-14 2.1-23-0.2-52.7-13.4-48.9 10-44.7 16.8 12 19.6 42.8-2.5 31.5 16.8-11 18.3-62.9 19.6-79.3-17.2-2.6-5.8-4.3-12.6-4.9-20.3-2.9-41.6 21.9-63.7 51.7-71.6-22.7 6-84.2 28-68.1 91.2-60.8-8.7-65.5-67-60.3-88.9 3.8-15.1 12.1-45.1 12.5-54 0.5-17.5-16.1-33.8 9-27.7 30.4 7.3 10.6 39 32.3 65.6 6.4 7.6 17.6 9.7 28.3 5.3 0 0 24.4-8.5 38.4-27.7 13.9-19.5 16-40.2 16-40.2 0 0-12.8 19.6-29.5 31.9 2.9-15.9 0.8-36.8-9.4-63.5-36.1-55.1-51.4-128.1-2.9-184.7 44.7-52.3 100-56.9 124.6-56.9 24.5 0 79.8 4.5 124.6 56.8 42.3 49.4 36 111.4 9.8 162.9-10.4 18.5-20 28.1-28.7 45.9-13.4 27.5-10 43.8-10 43.8 0 0 7-15.1 18.5-26.9 1.2 44.2 41.4 52.3 53.3 31.9 16.8-28.1-9.3-43.6 21.3-59.4 30.4-15.9 13 6.6 13.4 17.1 0.6 15.7 11.1 30.4 16.8 44.2 9.3 22.8 9.8 68.9-41.7 83.3q-2.3 0.5-4.5 1.1c-13.2-50.2-51.4-61.2-70.1-63.4zm-130.7-150.8c-5.9 0-10.7-5.3-10.7-11.9 0-6.6 4.8-11.9 10.7-11.9 5.9 0 10.7 5.3 10.7 11.9 0 6.6-4.8 11.9-10.7 11.9zm57.7 0c-5.6 0-10.2-5.1-10.2-11.4 0-6.3 4.6-11.4 10.2-11.4 5.7 0 10.3 5.1 10.3 11.4 0 6.3-4.6 11.4-10.3 11.4z"/></svg>